<svg width="30" height="32" viewBox="0 0 30 32" fill="none" xmlns="http://www.w3.org/2000/svg">
<path d="M28.5 9.25L25.125 7.2805M28.5 9.25V12.625M28.5 9.25L25.125 11.2195M1.5 9.25L4.875 7.2805M1.5 9.25L4.875 11.2195M1.5 9.25V12.625M15 17.125L18.375 15.1555M15 17.125L11.625 15.1555M15 17.125V20.5M15 30.625L18.375 28.6555M15 30.625V27.25M15 30.625L11.625 28.6555M11.625 3.343L15 1.375L18.375 3.3445M28.5 19.375V22.75L25.125 24.7195M4.875 24.7195L1.5 22.75V19.375" stroke="black" stroke-width="1.5" stroke-linecap="round" stroke-linejoin="round"/>
</svg>
