<svg width="1840" height="1380" viewBox="0 0 1840 1380" fill="none" xmlns="http://www.w3.org/2000/svg">
<g clip-path="url(#clip0_2698_3705)">
<path d="M1080.94 936H914.969V1085.4H1080.94V936Z" fill="#8AFFD8"/>
<path d="M1011 702.688H994.566" stroke="#191919" stroke-width="5" stroke-miterlimit="10" stroke-linecap="round" stroke-linejoin="round"/>
<path d="M1051.46 403.891H1051.36" stroke="#191919" stroke-width="5" stroke-miterlimit="10" stroke-linecap="round" stroke-linejoin="round"/>
<path d="M1326.02 634.507C1326.02 739.813 1256.38 828.896 1160.54 858.358V906.034H1079.75V858.258C1175.59 828.896 1245.23 739.813 1245.23 634.407C1245.23 505.113 1140.32 400.305 1010.91 400.305H1091.7C1221.22 400.404 1326.02 505.213 1326.02 634.507Z" fill="#191919" stroke="#191919" stroke-width="5" stroke-miterlimit="10" stroke-linecap="round" stroke-linejoin="round"/>
<path d="M1079.85 906.039H994.668" stroke="#191919" stroke-width="5" stroke-miterlimit="10" stroke-linecap="round" stroke-linejoin="round"/>
<path d="M1051.36 579.464C1034.42 591.906 1023.46 611.912 1023.46 634.507H942.664C942.664 596.783 973.249 566.227 1011.01 566.227C1026.15 566.227 1040.1 571.203 1051.36 579.464Z" fill="#191919" stroke="#191919" stroke-width="5" stroke-miterlimit="10" stroke-linecap="round" stroke-linejoin="round"/>
<path d="M942.664 634.508H857.484" stroke="#191919" stroke-width="5" stroke-miterlimit="10" stroke-linecap="round" stroke-linejoin="round"/>
<path d="M1160.64 936H1079.85V1085.4H1160.64V936Z" fill="#191919" stroke="#191919" stroke-width="5" stroke-miterlimit="10" stroke-linecap="round" stroke-linejoin="round"/>
<path d="M1243.53 634.509C1243.53 739.815 1173.89 828.898 1078.05 858.36V906.036H912.079V702.789H1009.21C1046.97 702.789 1077.56 672.232 1077.56 634.509C1077.56 611.915 1066.6 591.909 1049.66 579.467C1038.3 571.106 1024.36 566.229 1009.31 566.229C971.555 566.229 940.97 596.786 940.97 634.509H774.895C774.895 505.215 879.8 400.406 1009.21 400.406C1138.63 400.406 1243.53 505.215 1243.53 634.509Z" fill="#8AFFD8"/>
<path d="M855.191 459.728C896.636 422.801 951.23 400.406 1011.01 400.406C1140.42 400.406 1245.32 505.215 1245.32 634.509C1245.32 739.815 1175.69 828.898 1079.85 858.36V906.036H913.871V853.482" stroke="#191919" stroke-width="5" stroke-miterlimit="10" stroke-linecap="round" stroke-linejoin="round"/>
<path d="M958.404 702.791H1011.01C1048.76 702.791 1079.35 672.234 1079.35 634.511C1079.35 611.917 1068.39 591.911 1051.45 579.469C1040.1 571.108 1026.15 566.231 1011.11 566.231C973.348 566.231 942.763 596.788 942.763 634.511H776.688C776.688 588.029 790.237 544.632 813.748 508.203" stroke="#191919" stroke-width="5" stroke-miterlimit="10" stroke-linecap="round" stroke-linejoin="round"/>
<path d="M1037.21 1085.4H913.871V936" stroke="#191919" stroke-width="5" stroke-miterlimit="10" stroke-linecap="round" stroke-linejoin="round"/>
<path d="M1011.01 936H1079.85V1085.4" stroke="#191919" stroke-width="5" stroke-miterlimit="10" stroke-linecap="round" stroke-linejoin="round"/>
<path d="M572.954 480.232H1090.71C1106.25 480.232 1118.8 467.691 1118.8 452.164V384.779C1118.8 369.252 1106.25 356.711 1090.71 356.711H572.954C557.412 356.711 544.859 369.252 544.859 384.779V452.164C544.859 467.691 557.412 480.232 572.954 480.232Z" fill="white"/>
<path d="M1089.81 480.232H944.555V356.711H1089.81C1105.85 356.711 1118.9 369.75 1118.9 385.775V451.168C1118.9 467.293 1105.85 480.232 1089.81 480.232Z" fill="#C08FFF"/>
<path d="M1058.53 480.232H1090.8C1106.35 480.232 1118.9 467.691 1118.9 452.164V384.779C1118.9 369.252 1106.35 356.711 1090.8 356.711H858.379" stroke="#191919" stroke-width="5" stroke-miterlimit="10" stroke-linecap="round" stroke-linejoin="round"/>
<path d="M544.859 421.211V452.166C544.859 467.693 557.412 480.234 572.954 480.234H1011.01" stroke="#191919" stroke-width="5" stroke-miterlimit="10" stroke-linecap="round" stroke-linejoin="round"/>
<path d="M797.908 356.711H572.954C557.412 356.711 544.859 369.252 544.859 384.779V391.647" stroke="#191919" stroke-width="5" stroke-miterlimit="10" stroke-linecap="round" stroke-linejoin="round"/>
<path d="M944.555 356.711V450.372" stroke="#191919" stroke-width="5" stroke-miterlimit="10" stroke-linecap="round" stroke-linejoin="round"/>
<path d="M1044.28 431.013C1056.53 418.769 1056.53 398.918 1044.28 386.674C1032.02 374.43 1012.15 374.43 999.897 386.674C987.642 398.918 987.642 418.769 999.897 431.013C1012.15 443.257 1032.02 443.257 1044.28 431.013Z" stroke="white" stroke-width="7" stroke-miterlimit="10" stroke-linecap="round" stroke-linejoin="round"/>
<path d="M1044.28 430.961L1072.77 459.428" stroke="white" stroke-width="7" stroke-miterlimit="10" stroke-linecap="round" stroke-linejoin="round"/>
<path d="M644.983 434.052C640.201 430.071 635.518 425.89 631.633 420.814C630.637 419.52 629.74 418.127 628.943 416.634C628.545 415.837 628.146 415.041 627.847 414.145C627.548 413.25 627.349 412.354 627.249 411.159C627.249 410.064 627.449 408.671 628.246 407.477C628.644 406.879 629.242 406.382 629.74 405.984C630.338 405.685 630.936 405.386 631.434 405.187C633.725 404.59 635.518 404.988 637.212 405.386C640.599 406.282 643.488 407.875 646.178 409.567C648.868 411.259 651.359 413.25 653.75 415.34C656.141 417.43 658.233 419.719 660.325 422.108C662.417 424.497 664.31 427.085 665.904 430.071C667.398 432.957 668.594 436.341 668.395 440.124C668.395 441.019 668.096 442.015 667.897 442.911C667.797 443.408 667.498 443.806 667.398 444.204L667.1 444.901C667 445.1 666.801 445.299 666.701 445.498C666.402 445.897 666.203 446.295 665.904 446.693L664.908 447.788C664.609 448.186 664.21 448.484 663.912 448.683C663.513 448.982 663.214 449.281 662.816 449.48C659.827 451.47 656.44 452.366 653.152 452.764C649.864 453.162 646.577 453.063 643.389 452.665C630.637 450.973 619.08 445.1 609.217 437.536C608.121 436.739 607.922 435.147 608.719 434.052C609.516 432.957 611.11 432.758 612.206 433.554C616.888 437.138 621.969 440.223 627.249 442.711C632.629 445.1 638.208 446.991 643.987 447.688C646.876 448.086 649.765 448.086 652.455 447.788C655.244 447.489 657.834 446.693 659.927 445.299C661.919 443.906 663.214 441.915 663.314 439.626C663.513 437.237 662.716 434.649 661.421 432.26C660.126 429.772 658.432 427.483 656.539 425.293C654.646 423.103 652.554 420.914 650.363 419.022C648.171 417.032 645.879 415.24 643.488 413.648C641.097 412.155 638.507 410.761 636.016 410.164C634.821 409.865 633.526 409.766 632.828 409.965C632.43 410.064 632.33 410.164 632.33 410.264C632.33 410.264 632.231 410.562 632.231 410.96C632.231 411.757 632.729 413.05 633.327 414.245C633.924 415.439 634.721 416.634 635.618 417.729C639.105 422.307 643.588 426.288 648.171 430.17C649.267 431.066 649.366 432.659 648.47 433.654C647.673 434.848 646.079 434.948 644.983 434.052Z" fill="#191919"/>
<path d="M705.752 429.667C698.48 425.088 691.406 420.211 685.03 414.338C681.842 411.452 678.754 408.267 676.064 404.684C674.769 402.892 673.573 400.901 672.577 398.811C672.079 397.716 671.681 396.522 671.481 395.327C671.182 394.034 671.083 392.64 671.382 391.247C671.481 390.55 671.78 389.754 672.179 389.057C672.577 388.36 673.075 387.663 673.673 387.166C674.869 386.071 676.263 385.474 677.559 385.175C680.248 384.578 682.639 384.876 684.931 385.374C689.514 386.369 693.499 388.261 697.384 390.45C704.955 394.929 711.63 400.503 717.707 406.674C720.696 409.859 723.585 413.044 726.076 416.727C728.567 420.41 730.659 424.391 731.854 428.97C732.253 430.065 732.253 431.259 732.452 432.453C732.552 433.051 732.452 433.648 732.552 434.245C732.552 434.842 732.651 435.439 732.452 436.037C732.253 438.525 731.456 440.914 730.161 443.104C728.866 445.194 727.172 447.085 725.179 448.478C724.681 448.876 724.183 449.175 723.685 449.474C723.187 449.772 722.689 450.071 722.191 450.369L720.597 451.066C720.298 451.166 720.099 451.365 719.8 451.464L719.003 451.763C714.719 453.355 710.136 453.953 705.752 454.052C701.369 454.152 696.886 453.754 692.602 452.957C688.318 452.161 684.134 451.066 679.95 449.673C675.865 448.279 671.88 446.587 667.895 444.696C666.699 444.099 666.102 442.606 666.699 441.411C667.297 440.217 668.791 439.62 669.987 440.217H670.087C673.773 442.009 677.559 443.701 681.544 444.995C685.429 446.289 689.414 447.383 693.399 448.08C697.384 448.777 701.469 449.175 705.553 449.076C709.538 448.976 713.523 448.379 717.209 447.085C720.896 445.791 723.984 443.601 725.877 440.615C726.674 439.122 727.272 437.43 727.471 435.639C727.57 435.24 727.471 434.743 727.471 434.245C727.471 433.747 727.471 433.349 727.471 432.852C727.272 431.956 727.272 431.06 726.973 430.065C726.076 426.382 724.183 422.799 721.892 419.514C719.6 416.13 716.91 413.144 714.121 410.058C708.343 404.186 701.967 398.811 694.893 394.631C691.406 392.64 687.72 390.948 683.935 390.052C682.141 389.654 680.248 389.555 678.754 389.853C678.057 390.052 677.459 390.351 677.06 390.649C676.662 390.948 676.463 391.446 676.363 392.043C676.064 393.237 676.562 395.029 677.26 396.721C678.057 398.413 679.053 400.105 680.248 401.698C682.639 404.883 685.529 407.869 688.517 410.656C694.594 416.23 701.469 421.007 708.542 425.387C709.737 426.083 710.036 427.676 709.339 428.771C708.442 429.965 706.948 430.363 705.752 429.667Z" fill="#191919"/>
<path d="M775.192 433.649C767.222 428.473 759.651 422.899 752.577 416.43C749.09 413.245 745.703 409.761 742.714 405.979C741.22 404.087 739.825 402.097 738.63 399.907C737.434 397.717 736.338 395.329 735.94 392.542C735.741 391.148 735.741 389.556 736.438 387.864C736.737 387.067 737.235 386.271 737.833 385.574C738.431 384.977 739.228 384.38 739.925 384.081C741.419 383.285 742.914 383.185 744.308 383.086C745.703 383.086 746.998 383.185 748.293 383.484C753.374 384.579 757.758 386.769 761.942 389.257C770.211 394.234 777.384 400.604 784.059 407.273C787.347 410.657 790.535 414.24 793.424 418.122C796.213 422.004 798.803 426.283 800.298 431.26C800.995 433.748 801.394 436.436 801.095 439.123C800.696 441.91 799.501 444.697 797.608 446.688C795.715 448.778 793.324 450.171 790.933 451.167C788.542 452.162 786.051 452.759 783.66 453.157C778.779 453.954 773.897 453.854 769.115 453.357C764.333 452.859 759.651 452.063 754.968 450.868C745.703 448.579 736.737 445.294 728.169 441.413C726.874 440.815 726.376 439.422 726.974 438.128C727.571 436.834 728.966 436.336 730.261 436.934C738.63 440.716 747.297 443.901 756.164 446.091C760.647 447.185 765.13 447.982 769.613 448.479C774.096 448.878 778.679 448.977 782.963 448.28C785.155 447.982 787.247 447.484 789.14 446.588C791.033 445.792 792.726 444.697 794.021 443.304C795.317 441.91 796.014 440.218 796.313 438.327C796.512 436.436 796.313 434.445 795.715 432.355C794.52 428.274 792.228 424.392 789.638 420.809C787.048 417.126 783.959 413.742 780.771 410.458C774.296 403.988 767.322 397.817 759.651 393.139C755.765 390.85 751.681 388.859 747.596 387.963C745.604 387.565 743.511 387.565 742.316 388.162C741.718 388.461 741.419 388.859 741.12 389.357C740.921 389.954 740.822 390.75 740.921 391.646C741.12 393.437 742.017 395.428 743.013 397.319C744.01 399.21 745.305 401.002 746.699 402.794C749.489 406.277 752.677 409.562 756.064 412.647C762.839 418.818 770.311 424.293 777.982 429.369C779.078 430.066 779.377 431.559 778.679 432.654C777.783 434.047 776.288 434.346 775.192 433.649Z" fill="#191919"/>
<path d="M834.869 431.663C833.175 430.568 831.681 429.473 830.087 428.379L825.404 425.094C823.81 423.999 822.316 422.904 820.722 421.71C819.925 421.113 819.227 420.515 818.43 419.918C817.633 419.321 816.936 418.624 816.139 418.027C813.25 415.439 810.46 412.652 807.97 409.666C805.479 406.581 803.188 403.296 801.992 398.917C801.893 398.319 801.693 397.822 801.693 397.225C801.693 396.926 801.594 396.627 801.594 396.329L801.693 395.333C801.693 395.134 801.693 395.035 801.693 394.836L801.793 394.338C801.893 394.039 801.992 393.641 802.092 393.343C802.291 393.044 802.391 392.646 802.59 392.347C802.789 392.049 803.088 391.75 803.287 391.452L803.686 391.053L804.184 390.755C804.483 390.556 804.782 390.257 805.18 390.158C805.878 389.859 806.475 389.66 807.173 389.56C807.472 389.461 807.771 389.461 808.169 389.461H809.066C809.663 389.461 810.261 389.56 810.759 389.56C815.143 390.158 818.729 392.049 822.216 393.94C825.603 395.931 828.791 398.22 831.78 400.708C834.769 403.197 837.658 405.784 840.448 408.472C843.137 411.259 845.728 414.245 847.92 417.629C850.111 420.914 852.004 424.596 853 428.677C853.2 429.672 853.499 430.668 853.499 431.763L853.598 433.355V434.948V435.744L853.499 436.54L853.2 438.133C852.901 439.228 852.602 440.323 852.104 441.218C851.207 443.309 849.812 445.001 848.218 446.494L847.023 447.588C846.624 447.887 846.126 448.186 845.728 448.484C844.831 449.081 843.934 449.579 842.938 450.077C839.152 451.868 835.068 452.565 831.083 452.864C827.098 453.162 823.113 452.864 819.227 452.267C815.342 451.669 811.556 450.774 807.87 449.579C804.184 448.484 800.498 447.091 797.011 445.598C795.716 445.1 795.118 443.607 795.616 442.313C796.114 441.019 797.609 440.422 798.904 440.92H799.003C802.391 442.313 805.878 443.707 809.364 444.702C812.851 445.797 816.438 446.693 820.024 447.19C823.611 447.788 827.297 447.987 830.784 447.788C834.271 447.588 837.857 446.892 840.846 445.498C843.835 444.105 846.425 441.915 847.72 439.029C848.119 438.332 848.218 437.536 848.517 436.839L848.717 435.644L848.816 435.047V434.45V433.256L848.717 432.061C848.717 431.265 848.418 430.369 848.318 429.573C847.521 426.288 845.927 423.103 843.934 420.117C841.942 417.131 839.551 414.344 837.06 411.756C831.88 406.581 826.102 401.704 819.925 398.021C816.836 396.229 813.449 394.637 810.361 394.239C808.866 394.039 807.472 394.338 807.073 394.836C806.575 395.134 806.475 396.528 806.874 397.921C807.272 399.414 807.97 400.907 808.866 402.4C809.763 403.893 810.759 405.386 811.955 406.78C814.246 409.567 816.836 412.155 819.526 414.643C820.224 415.24 820.921 415.837 821.618 416.435C822.316 417.032 823.013 417.529 823.81 418.127C825.305 419.221 826.799 420.316 828.393 421.411L832.976 424.696C834.47 425.791 836.064 426.886 837.558 427.781H837.658C838.754 428.478 839.053 429.971 838.355 431.066C837.459 432.061 835.964 432.36 834.869 431.663Z" fill="#191919"/>
<path d="M887.37 420.417C888.864 424.996 889.96 429.972 889.063 435.148C888.565 437.736 887.469 440.423 885.576 442.514C883.683 444.703 880.994 445.898 878.403 446.495C873.123 447.59 868.241 446.694 863.559 445.5C858.976 444.206 854.593 442.414 850.309 440.423C849.113 439.826 848.516 438.333 849.113 437.139C849.711 435.944 851.206 435.347 852.401 435.944C856.486 437.935 860.57 439.627 864.854 440.821C869.038 442.016 873.422 442.713 877.208 441.817C879.101 441.319 880.794 440.622 881.89 439.229C883.086 437.935 883.883 436.243 884.182 434.352C884.879 430.47 884.082 426.091 882.687 422.01C882.289 420.716 882.886 419.422 884.182 418.924C885.477 418.426 886.871 419.223 887.37 420.417Z" fill="#191919"/>
<path d="M633.229 276.492L584.113 325.562" stroke="#191919" stroke-width="5" stroke-miterlimit="10" stroke-linecap="round" stroke-linejoin="round"/>
<path d="M633.229 325.562L584.113 276.492" stroke="#191919" stroke-width="5" stroke-miterlimit="10" stroke-linecap="round" stroke-linejoin="round"/>
<path d="M674.77 325.555H729.065" stroke="#191919" stroke-width="5" stroke-miterlimit="10" stroke-linecap="round" stroke-linejoin="round"/>
<path d="M1263.06 1103.71C1272.42 1103.71 1277.8 1095.55 1275.21 1085.5L1128.57 524.23C1125.97 514.177 1116.21 506.016 1106.85 506.016C1097.48 506.016 1092.1 514.177 1094.69 524.23L1241.34 1085.5C1244.03 1095.65 1253.69 1103.71 1263.06 1103.71Z" fill="white"/>
<path d="M1266.84 571.903L1254.39 524.127C1253.1 519.05 1253.79 514.571 1255.99 511.187C1258.18 507.903 1261.86 505.812 1266.55 505.812C1275.91 505.812 1285.57 513.974 1288.26 524.027L1434.81 1085.2C1437.4 1095.25 1432.02 1103.41 1422.66 1103.41C1413.29 1103.41 1403.63 1095.25 1400.94 1085.2L1388.49 1037.42" fill="white"/>
<path d="M1218.53 868.212L1128.57 523.926C1125.97 513.873 1116.21 505.711 1106.85 505.711C1097.48 505.711 1092.1 513.873 1094.69 523.926" stroke="#191919" stroke-width="5" stroke-miterlimit="10" stroke-linecap="round" stroke-linejoin="round"/>
<path d="M1137.63 688.359L1241.34 1085.3C1243.93 1095.35 1253.69 1103.51 1263.06 1103.51C1272.42 1103.51 1277.8 1095.35 1275.21 1085.3L1227.79 903.75" stroke="#191919" stroke-width="5" stroke-miterlimit="10" stroke-linecap="round" stroke-linejoin="round"/>
<path d="M1330.7 815.961L1353.62 903.451" stroke="#191919" stroke-width="5" stroke-miterlimit="10" stroke-linecap="round" stroke-linejoin="round"/>
<path d="M1272.92 594.695L1295.74 682.285" stroke="#191919" stroke-width="5" stroke-miterlimit="10" stroke-linecap="round" stroke-linejoin="round"/>
<path d="M1391.97 921.07L1434.81 1085C1437.4 1095.05 1432.02 1103.22 1422.66 1103.22C1413.29 1103.22 1403.63 1095.05 1400.94 1085L1388.48 1037.23" stroke="#191919" stroke-width="5" stroke-miterlimit="10" stroke-linecap="round" stroke-linejoin="round"/>
<path d="M1361.49 804.414L1371.05 840.843" stroke="#191919" stroke-width="5" stroke-miterlimit="10" stroke-linecap="round" stroke-linejoin="round"/>
<path d="M1266.84 571.606L1254.39 523.83C1253.1 518.754 1253.79 514.275 1255.99 510.89C1258.18 507.606 1261.86 505.516 1266.55 505.516C1275.91 505.516 1285.57 513.677 1288.26 523.73L1353.62 773.957" stroke="#191919" stroke-width="5" stroke-miterlimit="10" stroke-linecap="round" stroke-linejoin="round"/>
<path d="M1301.81 705.375L1324.63 792.865" stroke="#191919" stroke-width="5" stroke-miterlimit="10" stroke-linecap="round" stroke-linejoin="round"/>
<path d="M1359.59 926.641L1382.51 1014.13" stroke="#191919" stroke-width="5" stroke-miterlimit="10" stroke-linecap="round" stroke-linejoin="round"/>
<path d="M1147.09 594.892L1272.92 594.693H1280.89C1286.77 594.693 1290.25 589.518 1288.56 583.147C1287.76 579.962 1285.77 577.076 1283.28 574.986C1280.79 572.895 1277.8 571.602 1274.81 571.602H1266.84L1141.02 571.801L1147.09 594.892Z" fill="white"/>
<path d="M1175.98 705.58L1301.81 705.381H1309.78C1315.66 705.381 1319.15 700.205 1317.45 693.835C1316.65 690.65 1314.66 687.763 1312.17 685.673C1309.68 683.583 1306.69 682.289 1303.7 682.289H1295.73L1169.91 682.488L1175.98 705.58Z" fill="white"/>
<path d="M1204.88 816.158L1330.7 815.959H1338.67C1344.55 815.959 1348.04 810.783 1346.35 804.413C1345.55 801.228 1343.56 798.342 1341.07 796.251C1338.58 794.161 1335.59 792.867 1332.6 792.867H1324.63L1198.8 793.066L1204.88 816.158Z" fill="white"/>
<path d="M1233.87 926.838L1359.69 926.639H1367.66C1373.54 926.639 1377.03 921.463 1375.33 915.093C1374.54 911.908 1372.54 909.021 1370.05 906.931C1367.56 904.841 1364.57 903.547 1361.59 903.547H1353.62L1227.79 903.746L1233.87 926.838Z" fill="white"/>
<path d="M1262.76 1037.42L1388.59 1037.22H1396.56C1402.44 1037.22 1405.92 1032.05 1404.23 1025.68C1403.43 1022.49 1401.44 1019.61 1398.95 1017.52C1396.46 1015.43 1393.47 1014.13 1390.48 1014.13H1382.51L1256.68 1014.33L1262.76 1037.42Z" fill="white"/>
<path d="M1180.47 594.894L1272.82 594.795H1280.79C1286.67 594.795 1290.16 589.619 1288.46 583.249C1287.67 580.064 1285.67 577.177 1283.18 575.087C1280.69 572.997 1277.7 571.703 1274.71 571.703H1266.74L1140.92 571.902L1147 594.994" stroke="#191919" stroke-width="5" stroke-miterlimit="10" stroke-linecap="round" stroke-linejoin="round"/>
<path d="M1175.98 705.58L1301.81 705.381H1309.78C1315.66 705.381 1319.15 700.205 1317.45 693.835C1316.66 690.65 1314.66 687.763 1312.17 685.673C1309.68 683.583 1306.69 682.289 1303.7 682.289H1223.31" stroke="#191919" stroke-width="5" stroke-miterlimit="10" stroke-linecap="round" stroke-linejoin="round"/>
<path d="M1204.88 816.158L1330.7 815.959H1338.67C1344.55 815.959 1348.04 810.783 1346.35 804.413C1345.55 801.228 1343.56 798.342 1341.07 796.251C1338.58 794.161 1335.59 792.867 1332.6 792.867H1324.63L1198.8 793.066L1204.88 816.158Z" stroke="#191919" stroke-width="5" stroke-miterlimit="10" stroke-linecap="round" stroke-linejoin="round"/>
<path d="M1295.73 903.553L1227.79 903.652L1233.87 926.744L1359.69 926.545H1367.66C1373.54 926.545 1377.03 921.369 1375.33 914.999C1374.54 911.814 1372.54 908.927 1370.05 906.837C1367.56 904.747 1364.57 903.453 1361.59 903.453H1353.62L1317.95 903.553" stroke="#191919" stroke-width="5" stroke-miterlimit="10" stroke-linecap="round" stroke-linejoin="round"/>
<path d="M1256.68 1014.33L1262.76 1037.42L1388.59 1037.22H1396.56C1402.44 1037.22 1405.92 1032.05 1404.23 1025.68C1403.43 1022.49 1401.44 1019.61 1398.95 1017.52C1396.46 1015.43 1393.47 1014.13 1390.48 1014.13H1382.51L1289.16 1014.23" stroke="#191919" stroke-width="5" stroke-miterlimit="10" stroke-linecap="round" stroke-linejoin="round"/>
<path d="M645.383 705.18V745.988C645.383 784.607 663.415 821.136 694.1 844.626L725.681 868.813C731.758 873.491 731.758 882.648 725.681 887.326L694.1 911.512C663.415 935.002 645.383 971.531 645.383 1010.15V1050.96H858.382V1010.15C858.382 971.531 840.35 935.002 809.665 911.512L778.084 887.326C772.007 882.648 772.007 873.491 778.084 868.813L809.665 844.626C840.35 821.136 858.382 784.607 858.382 745.988V705.18H645.383V705.18Z" fill="#C08FFF"/>
<path d="M821.421 1028.26C821.421 1024.08 819.329 1020 815.742 1017.41C810.96 1013.93 803.189 1009.45 793.526 1007.26C788.544 1006.17 783.065 1005.17 777.685 1004.37C760.55 1001.89 743.215 1001.89 726.079 1004.37C720.699 1005.17 715.22 1006.07 710.239 1007.26C700.575 1009.45 692.804 1013.93 688.022 1017.41C684.436 1020 682.344 1023.98 682.344 1028.26H821.421Z" fill="white" stroke="white" stroke-width="5" stroke-miterlimit="10" stroke-linecap="round" stroke-linejoin="round"/>
<path d="M740.922 843.034C747.796 846.816 755.965 846.816 762.739 843.034C782.665 831.886 821.319 803.718 821.319 777.242C821.319 772.763 817.035 769.18 811.855 769.18H751.781H691.707C686.426 769.18 682.242 772.763 682.242 777.242C682.342 803.718 720.996 831.886 740.922 843.034Z" fill="white" stroke="white" stroke-width="5" stroke-miterlimit="10" stroke-linecap="round" stroke-linejoin="round"/>
<path d="M693.998 844.828L725.579 869.015C731.656 873.693 731.656 882.85 725.579 887.528L693.998 911.715C663.313 935.204 645.281 971.733 645.281 1010.35V1051.16H858.28V1010.35C858.28 1005.48 857.981 1000.7 857.483 996.019" stroke="#191919" stroke-width="5" stroke-miterlimit="10" stroke-linecap="round" stroke-linejoin="round"/>
<path d="M716.615 705.375H645.383V746.184C645.383 766.688 650.464 786.694 659.828 804.311" stroke="#191919" stroke-width="5" stroke-miterlimit="10" stroke-linecap="round" stroke-linejoin="round"/>
<path d="M849.513 964.363C841.343 943.859 827.695 925.644 809.663 911.809L778.081 887.623C772.004 882.945 772.004 873.788 778.081 869.11L809.663 844.923C840.347 821.433 858.379 784.904 858.379 746.285V728.469" stroke="#191919" stroke-width="5" stroke-miterlimit="10" stroke-linecap="round" stroke-linejoin="round"/>
<path d="M763.04 705.376H865.754C875.218 705.376 882.79 697.712 882.79 688.356C882.79 678.9 875.119 671.336 865.754 671.336H637.911C628.447 671.336 620.875 679 620.875 688.356C620.875 697.812 628.546 705.376 637.911 705.376H707.35" stroke="#191919" stroke-width="5" stroke-miterlimit="10" stroke-linecap="round" stroke-linejoin="round"/>
<path d="M865.854 1085.4C875.318 1085.4 882.89 1077.74 882.89 1068.38C882.89 1058.92 875.218 1051.36 865.854 1051.36H637.911C628.447 1051.36 620.875 1059.02 620.875 1068.38C620.875 1077.84 628.546 1085.4 637.911 1085.4H821.421" stroke="#191919" stroke-width="5" stroke-miterlimit="10" stroke-linecap="round" stroke-linejoin="round"/>
<path d="M456.891 696.323V592.51C456.891 574.096 471.834 559.067 490.365 559.067H652.953L727.274 510.594V559.067V696.323C727.274 714.737 712.33 729.766 693.8 729.766H490.365C471.834 729.766 456.891 714.737 456.891 696.323Z" fill="white"/>
<path d="M530.512 728.37H489.666C471.235 728.37 456.191 713.44 456.191 694.927V591.213C456.191 572.799 471.135 557.77 489.666 557.77H652.254L726.575 509.297" stroke="#191919" stroke-width="5" stroke-miterlimit="10" stroke-linecap="round" stroke-linejoin="round"/>
<path d="M726.674 546.625V694.93C726.674 713.344 711.731 728.373 693.2 728.373H576.141" stroke="#191919" stroke-width="5" stroke-miterlimit="10" stroke-linecap="round" stroke-linejoin="round"/>
<path d="M511.883 607.734H671.084" stroke="#191919" stroke-width="5" stroke-miterlimit="10" stroke-linecap="round" stroke-linejoin="round"/>
<path d="M573.152 644.664H671.084" stroke="#191919" stroke-width="5" stroke-miterlimit="10" stroke-linecap="round" stroke-linejoin="round"/>
<path d="M511.883 644.664H544.859" stroke="#191919" stroke-width="5" stroke-miterlimit="10" stroke-linecap="round" stroke-linejoin="round"/>
<path d="M511.883 681.586H591.483" stroke="#191919" stroke-width="5" stroke-miterlimit="10" stroke-linecap="round" stroke-linejoin="round"/>
<path d="M597.262 796.852V825.617" stroke="#191919" stroke-width="5" stroke-miterlimit="10" stroke-linecap="round" stroke-linejoin="round"/>
<path d="M568.867 804.414L583.313 829.397" stroke="#191919" stroke-width="5" stroke-miterlimit="10" stroke-linecap="round" stroke-linejoin="round"/>
<path d="M548.145 825.117L573.15 839.55" stroke="#191919" stroke-width="5" stroke-miterlimit="10" stroke-linecap="round" stroke-linejoin="round"/>
<path d="M540.574 853.484H569.366" stroke="#191919" stroke-width="5" stroke-miterlimit="10" stroke-linecap="round" stroke-linejoin="round"/>
<path d="M548.145 881.753L573.15 867.32" stroke="#191919" stroke-width="5" stroke-miterlimit="10" stroke-linecap="round" stroke-linejoin="round"/>
<path d="M568.867 902.459L583.313 877.477" stroke="#191919" stroke-width="5" stroke-miterlimit="10" stroke-linecap="round" stroke-linejoin="round"/>
<path d="M597.262 910.023V881.258" stroke="#191919" stroke-width="5" stroke-miterlimit="10" stroke-linecap="round" stroke-linejoin="round"/>
<path d="M625.555 902.459L611.109 877.477" stroke="#191919" stroke-width="5" stroke-miterlimit="10" stroke-linecap="round" stroke-linejoin="round"/>
<path d="M640.101 878.169L621.371 867.32" stroke="#191919" stroke-width="5" stroke-miterlimit="10" stroke-linecap="round" stroke-linejoin="round"/>
<path d="M640.098 853.484H625.055" stroke="#191919" stroke-width="5" stroke-miterlimit="10" stroke-linecap="round" stroke-linejoin="round"/>
<path d="M626.552 836.562L621.371 839.549" stroke="#191919" stroke-width="5" stroke-miterlimit="10" stroke-linecap="round" stroke-linejoin="round"/>
<path d="M442.647 546.628L405.188 509.203" stroke="#191919" stroke-width="5" stroke-miterlimit="10" stroke-linecap="round" stroke-linejoin="round"/>
<path d="M428.498 571.909L403.492 564.742" stroke="#191919" stroke-width="5" stroke-miterlimit="10" stroke-linecap="round" stroke-linejoin="round"/>
<path d="M467.948 532.491L460.676 507.508" stroke="#191919" stroke-width="5" stroke-miterlimit="10" stroke-linecap="round" stroke-linejoin="round"/>
<path d="M723.785 931.82H470.637C463.364 931.82 457.387 937.693 457.387 945.058V967.055C457.387 974.321 463.265 980.293 470.637 980.293H723.785C731.057 980.293 737.035 974.421 737.035 967.055V945.058C737.035 937.693 731.157 931.82 723.785 931.82Z" fill="white"/>
<path d="M576.14 931.914H470.637C463.364 931.914 457.387 937.787 457.387 945.152V967.149C457.387 974.415 463.265 980.387 470.637 980.387H679.352" stroke="#191919" stroke-width="5" stroke-miterlimit="10" stroke-linecap="round" stroke-linejoin="round"/>
<path d="M713.225 980.387H723.785C731.058 980.387 737.035 974.514 737.035 967.149V945.152C737.035 937.886 731.157 931.914 723.785 931.914H603.039" stroke="#191919" stroke-width="5" stroke-miterlimit="10" stroke-linecap="round" stroke-linejoin="round"/>
<path d="M483.59 944.953H471.336V967.149H483.59V944.953Z" fill="#191919" stroke="#191919" stroke-width="5" stroke-miterlimit="10" stroke-linecap="round" stroke-linejoin="round"/>
<path d="M510.09 944.953H497.836V967.149H510.09V944.953Z" fill="#191919" stroke="#191919" stroke-width="5" stroke-miterlimit="10" stroke-linecap="round" stroke-linejoin="round"/>
<path d="M536.59 944.953H524.336V967.149H536.59V944.953Z" fill="#191919" stroke="#191919" stroke-width="5" stroke-miterlimit="10" stroke-linecap="round" stroke-linejoin="round"/>
<path d="M563.09 944.953H550.836V967.149H563.09V944.953Z" fill="#191919" stroke="#191919" stroke-width="5" stroke-miterlimit="10" stroke-linecap="round" stroke-linejoin="round"/>
</g>
<defs>
<clipPath id="clip0_2698_3705">
<rect width="1037" height="832" fill="white" transform="translate(401 274)"/>
</clipPath>
</defs>
</svg>
